<mxfile host="app.diagrams.net" modified="2024-03-22T09:36:05.360Z" agent="Mozilla/5.0 (Windows NT 10.0; Win64; x64) AppleWebKit/537.36 (KHTML, like Gecko) Chrome/122.0.0.0 Safari/537.36" etag="C9bbzQoHWyU_zC1-VSNB" version="24.0.7" type="device">
  <diagram id="C5RBs43oDa-KdzZeNtuy" name="Page-1">
    <mxGraphModel dx="2206" dy="1148" grid="0" gridSize="10" guides="1" tooltips="1" connect="1" arrows="1" fold="1" page="0" pageScale="1" pageWidth="827" pageHeight="1169" math="0" shadow="0">
      <root>
        <mxCell id="WIyWlLk6GJQsqaUBKTNV-0" />
        <mxCell id="WIyWlLk6GJQsqaUBKTNV-1" parent="WIyWlLk6GJQsqaUBKTNV-0" />
        <mxCell id="zkfFHV4jXpPFQw0GAbJ--0" value="ISubscriptionCreator" style="swimlane;fontStyle=2;align=center;verticalAlign=top;childLayout=stackLayout;horizontal=1;startSize=26;horizontalStack=0;resizeParent=1;resizeLast=0;collapsible=1;marginBottom=0;rounded=0;shadow=0;strokeWidth=1;" parent="WIyWlLk6GJQsqaUBKTNV-1" vertex="1">
          <mxGeometry x="440" y="20" width="390" height="52" as="geometry">
            <mxRectangle x="230" y="140" width="160" height="26" as="alternateBounds" />
          </mxGeometry>
        </mxCell>
        <mxCell id="zkfFHV4jXpPFQw0GAbJ--5" value="+ CreateSubscription(userId: int, type: SubscriptionType): Subscription" style="text;align=left;verticalAlign=top;spacingLeft=4;spacingRight=4;overflow=hidden;rotatable=0;points=[[0,0.5],[1,0.5]];portConstraint=eastwest;" parent="zkfFHV4jXpPFQw0GAbJ--0" vertex="1">
          <mxGeometry y="26" width="390" height="26" as="geometry" />
        </mxCell>
        <mxCell id="2VuJOfDaBP14-Dz3qf2v-0" value="Subscription" style="swimlane;fontStyle=2;align=center;verticalAlign=top;childLayout=stackLayout;horizontal=1;startSize=26;horizontalStack=0;resizeParent=1;resizeLast=0;collapsible=1;marginBottom=0;rounded=0;shadow=0;strokeWidth=1;" parent="WIyWlLk6GJQsqaUBKTNV-1" vertex="1">
          <mxGeometry x="754" y="286" width="799" height="190" as="geometry">
            <mxRectangle x="230" y="140" width="160" height="26" as="alternateBounds" />
          </mxGeometry>
        </mxCell>
        <mxCell id="2VuJOfDaBP14-Dz3qf2v-1" value="+ UserId: int" style="text;align=left;verticalAlign=top;spacingLeft=4;spacingRight=4;overflow=hidden;rotatable=0;points=[[0,0.5],[1,0.5]];portConstraint=eastwest;" parent="2VuJOfDaBP14-Dz3qf2v-0" vertex="1">
          <mxGeometry y="26" width="799" height="26" as="geometry" />
        </mxCell>
        <mxCell id="2VuJOfDaBP14-Dz3qf2v-2" value="+ MonthlyPayment: Decimal" style="text;align=left;verticalAlign=top;spacingLeft=4;spacingRight=4;overflow=hidden;rotatable=0;points=[[0,0.5],[1,0.5]];portConstraint=eastwest;rounded=0;shadow=0;html=0;" parent="2VuJOfDaBP14-Dz3qf2v-0" vertex="1">
          <mxGeometry y="52" width="799" height="26" as="geometry" />
        </mxCell>
        <mxCell id="2VuJOfDaBP14-Dz3qf2v-3" value="+ MinimumPeriodMonths: int" style="text;align=left;verticalAlign=top;spacingLeft=4;spacingRight=4;overflow=hidden;rotatable=0;points=[[0,0.5],[1,0.5]];portConstraint=eastwest;rounded=0;shadow=0;html=0;" parent="2VuJOfDaBP14-Dz3qf2v-0" vertex="1">
          <mxGeometry y="78" width="799" height="26" as="geometry" />
        </mxCell>
        <mxCell id="2VuJOfDaBP14-Dz3qf2v-15" value="+ Channels: IReadOnlyCollection&lt;string&gt;" style="text;align=left;verticalAlign=top;spacingLeft=4;spacingRight=4;overflow=hidden;rotatable=0;points=[[0,0.5],[1,0.5]];portConstraint=eastwest;rounded=0;shadow=0;html=0;" parent="2VuJOfDaBP14-Dz3qf2v-0" vertex="1">
          <mxGeometry y="104" width="799" height="26" as="geometry" />
        </mxCell>
        <mxCell id="2VuJOfDaBP14-Dz3qf2v-16" value="+ Type: SubscriptionType" style="text;align=left;verticalAlign=top;spacingLeft=4;spacingRight=4;overflow=hidden;rotatable=0;points=[[0,0.5],[1,0.5]];portConstraint=eastwest;rounded=0;shadow=0;html=0;" parent="2VuJOfDaBP14-Dz3qf2v-0" vertex="1">
          <mxGeometry y="130" width="799" height="26" as="geometry" />
        </mxCell>
        <mxCell id="2VuJOfDaBP14-Dz3qf2v-4" value="" style="line;html=1;strokeWidth=1;align=left;verticalAlign=middle;spacingTop=-1;spacingLeft=3;spacingRight=3;rotatable=0;labelPosition=right;points=[];portConstraint=eastwest;" parent="2VuJOfDaBP14-Dz3qf2v-0" vertex="1">
          <mxGeometry y="156" width="799" height="8" as="geometry" />
        </mxCell>
        <mxCell id="2VuJOfDaBP14-Dz3qf2v-5" value="+ Subscription(userId: int, monthlyPayment:  decimal, minimumPeriodMonths: int, channels: IReadOnlyCollection&lt;string&gt;, type: SubscriptionType ) " style="text;align=left;verticalAlign=top;spacingLeft=4;spacingRight=4;overflow=hidden;rotatable=0;points=[[0,0.5],[1,0.5]];portConstraint=eastwest;" parent="2VuJOfDaBP14-Dz3qf2v-0" vertex="1">
          <mxGeometry y="164" width="799" height="26" as="geometry" />
        </mxCell>
        <mxCell id="2VuJOfDaBP14-Dz3qf2v-6" value="ManagerCall" style="swimlane;fontStyle=2;align=center;verticalAlign=top;childLayout=stackLayout;horizontal=1;startSize=26;horizontalStack=0;resizeParent=1;resizeLast=0;collapsible=1;marginBottom=0;rounded=0;shadow=0;strokeWidth=1;" parent="WIyWlLk6GJQsqaUBKTNV-1" vertex="1">
          <mxGeometry x="30" y="160" width="390" height="52" as="geometry">
            <mxRectangle x="230" y="140" width="160" height="26" as="alternateBounds" />
          </mxGeometry>
        </mxCell>
        <mxCell id="2VuJOfDaBP14-Dz3qf2v-7" value="+ CreateSubscription(userId: int, type: SubscriptionType): Subscription" style="text;align=left;verticalAlign=top;spacingLeft=4;spacingRight=4;overflow=hidden;rotatable=0;points=[[0,0.5],[1,0.5]];portConstraint=eastwest;" parent="2VuJOfDaBP14-Dz3qf2v-6" vertex="1">
          <mxGeometry y="26" width="390" height="26" as="geometry" />
        </mxCell>
        <mxCell id="2VuJOfDaBP14-Dz3qf2v-8" value="WebSite" style="swimlane;fontStyle=2;align=center;verticalAlign=top;childLayout=stackLayout;horizontal=1;startSize=26;horizontalStack=0;resizeParent=1;resizeLast=0;collapsible=1;marginBottom=0;rounded=0;shadow=0;strokeWidth=1;" parent="WIyWlLk6GJQsqaUBKTNV-1" vertex="1">
          <mxGeometry x="851" y="160" width="390" height="52" as="geometry">
            <mxRectangle x="230" y="140" width="160" height="26" as="alternateBounds" />
          </mxGeometry>
        </mxCell>
        <mxCell id="2VuJOfDaBP14-Dz3qf2v-9" value="+ CreateSubscription(userId: int, type: SubscriptionType): Subscription" style="text;align=left;verticalAlign=top;spacingLeft=4;spacingRight=4;overflow=hidden;rotatable=0;points=[[0,0.5],[1,0.5]];portConstraint=eastwest;" parent="2VuJOfDaBP14-Dz3qf2v-8" vertex="1">
          <mxGeometry y="26" width="390" height="26" as="geometry" />
        </mxCell>
        <mxCell id="2VuJOfDaBP14-Dz3qf2v-10" value="MobileApp" style="swimlane;fontStyle=2;align=center;verticalAlign=top;childLayout=stackLayout;horizontal=1;startSize=26;horizontalStack=0;resizeParent=1;resizeLast=0;collapsible=1;marginBottom=0;rounded=0;shadow=0;strokeWidth=1;" parent="WIyWlLk6GJQsqaUBKTNV-1" vertex="1">
          <mxGeometry x="440" y="160" width="390" height="52" as="geometry">
            <mxRectangle x="230" y="140" width="160" height="26" as="alternateBounds" />
          </mxGeometry>
        </mxCell>
        <mxCell id="2VuJOfDaBP14-Dz3qf2v-11" value="+ CreateSubscription(userId: int, type: SubscriptionType): Subscription" style="text;align=left;verticalAlign=top;spacingLeft=4;spacingRight=4;overflow=hidden;rotatable=0;points=[[0,0.5],[1,0.5]];portConstraint=eastwest;" parent="2VuJOfDaBP14-Dz3qf2v-10" vertex="1">
          <mxGeometry y="26" width="390" height="26" as="geometry" />
        </mxCell>
        <mxCell id="2VuJOfDaBP14-Dz3qf2v-12" value="" style="edgeStyle=orthogonalEdgeStyle;rounded=0;orthogonalLoop=1;jettySize=auto;html=1;endArrow=block;endFill=0;dashed=1;strokeWidth=3;entryX=0.502;entryY=1.196;entryDx=0;entryDy=0;exitX=0.5;exitY=0;exitDx=0;exitDy=0;entryPerimeter=0;" parent="WIyWlLk6GJQsqaUBKTNV-1" source="2VuJOfDaBP14-Dz3qf2v-10" target="zkfFHV4jXpPFQw0GAbJ--5" edge="1">
          <mxGeometry relative="1" as="geometry">
            <mxPoint x="539.969696969697" y="124.03" as="sourcePoint" />
            <mxPoint x="539" y="-18.97" as="targetPoint" />
            <Array as="points">
              <mxPoint x="635" y="109" />
              <mxPoint x="636" y="109" />
            </Array>
          </mxGeometry>
        </mxCell>
        <mxCell id="2VuJOfDaBP14-Dz3qf2v-13" value="" style="edgeStyle=orthogonalEdgeStyle;rounded=0;orthogonalLoop=1;jettySize=auto;html=1;endArrow=block;endFill=0;dashed=1;strokeWidth=3;entryX=0.006;entryY=0.24;entryDx=0;entryDy=0;exitX=0.5;exitY=0;exitDx=0;exitDy=0;entryPerimeter=0;" parent="WIyWlLk6GJQsqaUBKTNV-1" source="2VuJOfDaBP14-Dz3qf2v-6" target="zkfFHV4jXpPFQw0GAbJ--5" edge="1">
          <mxGeometry relative="1" as="geometry">
            <mxPoint x="292" y="122" as="sourcePoint" />
            <mxPoint x="293" y="39" as="targetPoint" />
            <Array as="points">
              <mxPoint x="225" y="52" />
            </Array>
          </mxGeometry>
        </mxCell>
        <mxCell id="2VuJOfDaBP14-Dz3qf2v-14" value="" style="edgeStyle=orthogonalEdgeStyle;rounded=0;orthogonalLoop=1;jettySize=auto;html=1;endArrow=block;endFill=0;dashed=1;strokeWidth=3;entryX=1;entryY=0.5;entryDx=0;entryDy=0;exitX=0.5;exitY=0;exitDx=0;exitDy=0;" parent="WIyWlLk6GJQsqaUBKTNV-1" source="2VuJOfDaBP14-Dz3qf2v-8" target="zkfFHV4jXpPFQw0GAbJ--0" edge="1">
          <mxGeometry relative="1" as="geometry">
            <mxPoint x="1038" y="150" as="sourcePoint" />
            <mxPoint x="1255" y="42" as="targetPoint" />
            <Array as="points">
              <mxPoint x="1046" y="46" />
            </Array>
          </mxGeometry>
        </mxCell>
        <mxCell id="2VuJOfDaBP14-Dz3qf2v-42" style="edgeStyle=orthogonalEdgeStyle;rounded=0;orthogonalLoop=1;jettySize=auto;html=1;entryX=0;entryY=0.5;entryDx=0;entryDy=0;strokeWidth=3;endArrow=block;endFill=0;" parent="WIyWlLk6GJQsqaUBKTNV-1" source="2VuJOfDaBP14-Dz3qf2v-17" target="2VuJOfDaBP14-Dz3qf2v-3" edge="1">
          <mxGeometry relative="1" as="geometry" />
        </mxCell>
        <mxCell id="2VuJOfDaBP14-Dz3qf2v-17" value="DomesticSubscription" style="swimlane;fontStyle=2;align=center;verticalAlign=top;childLayout=stackLayout;horizontal=1;startSize=26;horizontalStack=0;resizeParent=1;resizeLast=0;collapsible=1;marginBottom=0;rounded=0;shadow=0;strokeWidth=1;" parent="WIyWlLk6GJQsqaUBKTNV-1" vertex="1">
          <mxGeometry x="44" y="583" width="713" height="190" as="geometry">
            <mxRectangle x="230" y="140" width="160" height="26" as="alternateBounds" />
          </mxGeometry>
        </mxCell>
        <mxCell id="2VuJOfDaBP14-Dz3qf2v-18" value="+ UserId: int" style="text;align=left;verticalAlign=top;spacingLeft=4;spacingRight=4;overflow=hidden;rotatable=0;points=[[0,0.5],[1,0.5]];portConstraint=eastwest;" parent="2VuJOfDaBP14-Dz3qf2v-17" vertex="1">
          <mxGeometry y="26" width="713" height="26" as="geometry" />
        </mxCell>
        <mxCell id="2VuJOfDaBP14-Dz3qf2v-19" value="+ MonthlyPayment: Decimal" style="text;align=left;verticalAlign=top;spacingLeft=4;spacingRight=4;overflow=hidden;rotatable=0;points=[[0,0.5],[1,0.5]];portConstraint=eastwest;rounded=0;shadow=0;html=0;" parent="2VuJOfDaBP14-Dz3qf2v-17" vertex="1">
          <mxGeometry y="52" width="713" height="26" as="geometry" />
        </mxCell>
        <mxCell id="2VuJOfDaBP14-Dz3qf2v-20" value="+ MinimumPeriodMonths: int" style="text;align=left;verticalAlign=top;spacingLeft=4;spacingRight=4;overflow=hidden;rotatable=0;points=[[0,0.5],[1,0.5]];portConstraint=eastwest;rounded=0;shadow=0;html=0;" parent="2VuJOfDaBP14-Dz3qf2v-17" vertex="1">
          <mxGeometry y="78" width="713" height="26" as="geometry" />
        </mxCell>
        <mxCell id="2VuJOfDaBP14-Dz3qf2v-21" value="+ Channels: IReadOnlyCollection&lt;string&gt;" style="text;align=left;verticalAlign=top;spacingLeft=4;spacingRight=4;overflow=hidden;rotatable=0;points=[[0,0.5],[1,0.5]];portConstraint=eastwest;rounded=0;shadow=0;html=0;" parent="2VuJOfDaBP14-Dz3qf2v-17" vertex="1">
          <mxGeometry y="104" width="713" height="26" as="geometry" />
        </mxCell>
        <mxCell id="2VuJOfDaBP14-Dz3qf2v-22" value="+ Type: SubscriptionType" style="text;align=left;verticalAlign=top;spacingLeft=4;spacingRight=4;overflow=hidden;rotatable=0;points=[[0,0.5],[1,0.5]];portConstraint=eastwest;rounded=0;shadow=0;html=0;" parent="2VuJOfDaBP14-Dz3qf2v-17" vertex="1">
          <mxGeometry y="130" width="713" height="26" as="geometry" />
        </mxCell>
        <mxCell id="2VuJOfDaBP14-Dz3qf2v-23" value="" style="line;html=1;strokeWidth=1;align=left;verticalAlign=middle;spacingTop=-1;spacingLeft=3;spacingRight=3;rotatable=0;labelPosition=right;points=[];portConstraint=eastwest;" parent="2VuJOfDaBP14-Dz3qf2v-17" vertex="1">
          <mxGeometry y="156" width="713" height="8" as="geometry" />
        </mxCell>
        <mxCell id="2VuJOfDaBP14-Dz3qf2v-24" value="+ DomesticSubscription(userId: int, monthlyPayment:  decimal, minimumPeriodMonths: int, channels: IReadOnlyCollection&lt;string&gt;) " style="text;align=left;verticalAlign=top;spacingLeft=4;spacingRight=4;overflow=hidden;rotatable=0;points=[[0,0.5],[1,0.5]];portConstraint=eastwest;" parent="2VuJOfDaBP14-Dz3qf2v-17" vertex="1">
          <mxGeometry y="164" width="713" height="26" as="geometry" />
        </mxCell>
        <mxCell id="2VuJOfDaBP14-Dz3qf2v-44" style="edgeStyle=orthogonalEdgeStyle;rounded=0;orthogonalLoop=1;jettySize=auto;html=1;entryX=1;entryY=0.5;entryDx=0;entryDy=0;strokeWidth=3;endArrow=block;endFill=0;" parent="WIyWlLk6GJQsqaUBKTNV-1" source="2VuJOfDaBP14-Dz3qf2v-25" target="2VuJOfDaBP14-Dz3qf2v-3" edge="1">
          <mxGeometry relative="1" as="geometry" />
        </mxCell>
        <mxCell id="2VuJOfDaBP14-Dz3qf2v-25" value="PremiumSubscription" style="swimlane;fontStyle=2;align=center;verticalAlign=top;childLayout=stackLayout;horizontal=1;startSize=26;horizontalStack=0;resizeParent=1;resizeLast=0;collapsible=1;marginBottom=0;rounded=0;shadow=0;strokeWidth=1;" parent="WIyWlLk6GJQsqaUBKTNV-1" vertex="1">
          <mxGeometry x="1561" y="583" width="712" height="190" as="geometry">
            <mxRectangle x="230" y="140" width="160" height="26" as="alternateBounds" />
          </mxGeometry>
        </mxCell>
        <mxCell id="2VuJOfDaBP14-Dz3qf2v-26" value="+ UserId: int" style="text;align=left;verticalAlign=top;spacingLeft=4;spacingRight=4;overflow=hidden;rotatable=0;points=[[0,0.5],[1,0.5]];portConstraint=eastwest;" parent="2VuJOfDaBP14-Dz3qf2v-25" vertex="1">
          <mxGeometry y="26" width="712" height="26" as="geometry" />
        </mxCell>
        <mxCell id="2VuJOfDaBP14-Dz3qf2v-27" value="+ MonthlyPayment: Decimal" style="text;align=left;verticalAlign=top;spacingLeft=4;spacingRight=4;overflow=hidden;rotatable=0;points=[[0,0.5],[1,0.5]];portConstraint=eastwest;rounded=0;shadow=0;html=0;" parent="2VuJOfDaBP14-Dz3qf2v-25" vertex="1">
          <mxGeometry y="52" width="712" height="26" as="geometry" />
        </mxCell>
        <mxCell id="2VuJOfDaBP14-Dz3qf2v-28" value="+ MinimumPeriodMonths: int" style="text;align=left;verticalAlign=top;spacingLeft=4;spacingRight=4;overflow=hidden;rotatable=0;points=[[0,0.5],[1,0.5]];portConstraint=eastwest;rounded=0;shadow=0;html=0;" parent="2VuJOfDaBP14-Dz3qf2v-25" vertex="1">
          <mxGeometry y="78" width="712" height="26" as="geometry" />
        </mxCell>
        <mxCell id="2VuJOfDaBP14-Dz3qf2v-29" value="+ Channels: IReadOnlyCollection&lt;string&gt;" style="text;align=left;verticalAlign=top;spacingLeft=4;spacingRight=4;overflow=hidden;rotatable=0;points=[[0,0.5],[1,0.5]];portConstraint=eastwest;rounded=0;shadow=0;html=0;" parent="2VuJOfDaBP14-Dz3qf2v-25" vertex="1">
          <mxGeometry y="104" width="712" height="26" as="geometry" />
        </mxCell>
        <mxCell id="2VuJOfDaBP14-Dz3qf2v-30" value="+ Type: SubscriptionType" style="text;align=left;verticalAlign=top;spacingLeft=4;spacingRight=4;overflow=hidden;rotatable=0;points=[[0,0.5],[1,0.5]];portConstraint=eastwest;rounded=0;shadow=0;html=0;" parent="2VuJOfDaBP14-Dz3qf2v-25" vertex="1">
          <mxGeometry y="130" width="712" height="26" as="geometry" />
        </mxCell>
        <mxCell id="2VuJOfDaBP14-Dz3qf2v-31" value="" style="line;html=1;strokeWidth=1;align=left;verticalAlign=middle;spacingTop=-1;spacingLeft=3;spacingRight=3;rotatable=0;labelPosition=right;points=[];portConstraint=eastwest;" parent="2VuJOfDaBP14-Dz3qf2v-25" vertex="1">
          <mxGeometry y="156" width="712" height="8" as="geometry" />
        </mxCell>
        <mxCell id="2VuJOfDaBP14-Dz3qf2v-32" value="+ PremiumSubscription(userId: int, monthlyPayment:  decimal, minimumPeriodMonths: int, channels: IReadOnlyCollection&lt;string&gt;) " style="text;align=left;verticalAlign=top;spacingLeft=4;spacingRight=4;overflow=hidden;rotatable=0;points=[[0,0.5],[1,0.5]];portConstraint=eastwest;" parent="2VuJOfDaBP14-Dz3qf2v-25" vertex="1">
          <mxGeometry y="164" width="712" height="26" as="geometry" />
        </mxCell>
        <mxCell id="2VuJOfDaBP14-Dz3qf2v-33" value="EducationalSubscription" style="swimlane;fontStyle=2;align=center;verticalAlign=top;childLayout=stackLayout;horizontal=1;startSize=26;horizontalStack=0;resizeParent=1;resizeLast=0;collapsible=1;marginBottom=0;rounded=0;shadow=0;strokeWidth=1;" parent="WIyWlLk6GJQsqaUBKTNV-1" vertex="1">
          <mxGeometry x="798" y="586" width="721" height="190" as="geometry">
            <mxRectangle x="230" y="140" width="160" height="26" as="alternateBounds" />
          </mxGeometry>
        </mxCell>
        <mxCell id="2VuJOfDaBP14-Dz3qf2v-34" value="+ UserId: int" style="text;align=left;verticalAlign=top;spacingLeft=4;spacingRight=4;overflow=hidden;rotatable=0;points=[[0,0.5],[1,0.5]];portConstraint=eastwest;" parent="2VuJOfDaBP14-Dz3qf2v-33" vertex="1">
          <mxGeometry y="26" width="721" height="26" as="geometry" />
        </mxCell>
        <mxCell id="2VuJOfDaBP14-Dz3qf2v-35" value="+ MonthlyPayment: Decimal" style="text;align=left;verticalAlign=top;spacingLeft=4;spacingRight=4;overflow=hidden;rotatable=0;points=[[0,0.5],[1,0.5]];portConstraint=eastwest;rounded=0;shadow=0;html=0;" parent="2VuJOfDaBP14-Dz3qf2v-33" vertex="1">
          <mxGeometry y="52" width="721" height="26" as="geometry" />
        </mxCell>
        <mxCell id="2VuJOfDaBP14-Dz3qf2v-36" value="+ MinimumPeriodMonths: int" style="text;align=left;verticalAlign=top;spacingLeft=4;spacingRight=4;overflow=hidden;rotatable=0;points=[[0,0.5],[1,0.5]];portConstraint=eastwest;rounded=0;shadow=0;html=0;" parent="2VuJOfDaBP14-Dz3qf2v-33" vertex="1">
          <mxGeometry y="78" width="721" height="26" as="geometry" />
        </mxCell>
        <mxCell id="2VuJOfDaBP14-Dz3qf2v-37" value="+ Channels: IReadOnlyCollection&lt;string&gt;" style="text;align=left;verticalAlign=top;spacingLeft=4;spacingRight=4;overflow=hidden;rotatable=0;points=[[0,0.5],[1,0.5]];portConstraint=eastwest;rounded=0;shadow=0;html=0;" parent="2VuJOfDaBP14-Dz3qf2v-33" vertex="1">
          <mxGeometry y="104" width="721" height="26" as="geometry" />
        </mxCell>
        <mxCell id="2VuJOfDaBP14-Dz3qf2v-38" value="+ Type: SubscriptionType" style="text;align=left;verticalAlign=top;spacingLeft=4;spacingRight=4;overflow=hidden;rotatable=0;points=[[0,0.5],[1,0.5]];portConstraint=eastwest;rounded=0;shadow=0;html=0;" parent="2VuJOfDaBP14-Dz3qf2v-33" vertex="1">
          <mxGeometry y="130" width="721" height="26" as="geometry" />
        </mxCell>
        <mxCell id="2VuJOfDaBP14-Dz3qf2v-39" value="" style="line;html=1;strokeWidth=1;align=left;verticalAlign=middle;spacingTop=-1;spacingLeft=3;spacingRight=3;rotatable=0;labelPosition=right;points=[];portConstraint=eastwest;" parent="2VuJOfDaBP14-Dz3qf2v-33" vertex="1">
          <mxGeometry y="156" width="721" height="8" as="geometry" />
        </mxCell>
        <mxCell id="2VuJOfDaBP14-Dz3qf2v-40" value="+ EducationalSubscription(userId: int, monthlyPayment:  decimal, minimumPeriodMonths: int, channels: IReadOnlyCollection&lt;string&gt;) " style="text;align=left;verticalAlign=top;spacingLeft=4;spacingRight=4;overflow=hidden;rotatable=0;points=[[0,0.5],[1,0.5]];portConstraint=eastwest;" parent="2VuJOfDaBP14-Dz3qf2v-33" vertex="1">
          <mxGeometry y="164" width="721" height="26" as="geometry" />
        </mxCell>
        <mxCell id="2VuJOfDaBP14-Dz3qf2v-43" style="edgeStyle=orthogonalEdgeStyle;rounded=0;orthogonalLoop=1;jettySize=auto;html=1;exitX=0.5;exitY=0;exitDx=0;exitDy=0;strokeWidth=3;endArrow=block;endFill=0;entryX=0.497;entryY=1.008;entryDx=0;entryDy=0;entryPerimeter=0;" parent="WIyWlLk6GJQsqaUBKTNV-1" target="2VuJOfDaBP14-Dz3qf2v-5" edge="1">
          <mxGeometry relative="1" as="geometry">
            <Array as="points">
              <mxPoint x="1152" y="531" />
            </Array>
            <mxPoint x="1151.8" y="586" as="sourcePoint" />
            <mxPoint x="1296" y="531" as="targetPoint" />
          </mxGeometry>
        </mxCell>
      </root>
    </mxGraphModel>
  </diagram>
</mxfile>
